<svg xmlns="http://www.w3.org/2000/svg" viewBox="0 0 64 64" role="img" aria-label="SM">
  <rect width="64" height="64" rx="14" fill="#080705"/>
  <rect x="6" y="6" width="52" height="52" rx="11" fill="url(#g)" stroke="#f2c879" stroke-opacity=".52"/>
  <path d="M13 44V20h14c6 0 10 3 10 8 0 3-2 5-5 6 4 1 6 3 6 7 0 5-4 8-11 8H13zm8-14h6c3 0 5-1 5-3s-2-3-5-3h-6v6zm0 13h7c3 0 5-1 5-3s-2-3-5-3h-7v6z" fill="#080705"/>
  <path d="M41 20h8v29h-8V20z" fill="#080705"/>
  <defs><linearGradient id="g" x1="10" x2="54" y1="10" y2="54"><stop stop-color="#f2c879"/><stop offset=".62" stop-color="#b7f1ee"/><stop offset="1" stop-color="#fff8eb"/></linearGradient></defs>
</svg>
