<svg xmlns="http://www.w3.org/2000/svg" width="980" height="626" viewBox="0 0 980 626">
<rect width="980" height="626" fill="#0f1216"/>
<text x="28" y="44" fill="#e8eaed" font-family="system-ui,sans-serif" font-size="23" font-weight="700">Frames on screen and 1% low, 2X to 6X</text>
<text x="28" y="74" fill="#98a2ad" font-family="system-ui,sans-serif" font-size="14">Measured in gameplay at 4K.</text>
<rect x="118" y="98" width="14" height="14" rx="3" fill="#2a3038"/>
<text x="140.0" y="110.0" fill="#98a2ad" font-family="system-ui,sans-serif" font-size="13" font-weight="400" text-anchor="start">frames on screen</text>
<rect x="368" y="98" width="14" height="14" rx="3" fill="#98a2ad"/>
<text x="390.0" y="110.0" fill="#98a2ad" font-family="system-ui,sans-serif" font-size="13" font-weight="400" text-anchor="start">1% low</text>
<text x="94.0" y="158.0" fill="#e8eaed" font-family="system-ui,sans-serif" font-size="22" font-weight="700" text-anchor="end">2X</text>
<rect x="118" y="128.0" width="353.2" height="26" rx="3" fill="#2a3038"/>
<text x="481.2" y="147.0" fill="#e8eaed" font-family="ui-monospace,Consolas,monospace" font-size="15" font-weight="700" text-anchor="start">130 fps</text>
<rect x="118" y="160.0" width="301.6" height="26" rx="3" fill="#98a2ad"/>
<text x="429.6" y="179.0" fill="#98a2ad" font-family="ui-monospace,Consolas,monospace" font-size="15" font-weight="700" text-anchor="start">111</text>
<text x="94.0" y="234.0" fill="#e8eaed" font-family="system-ui,sans-serif" font-size="22" font-weight="700" text-anchor="end">3X</text>
<rect x="118" y="204.0" width="508.0" height="26" rx="3" fill="#2a3038"/>
<text x="636.0" y="223.0" fill="#e8eaed" font-family="ui-monospace,Consolas,monospace" font-size="15" font-weight="700" text-anchor="start">187 fps</text>
<rect x="118" y="236.0" width="296.1" height="26" rx="3" fill="#98a2ad"/>
<text x="424.1" y="255.0" fill="#98a2ad" font-family="ui-monospace,Consolas,monospace" font-size="15" font-weight="700" text-anchor="start">109</text>
<text x="94.0" y="310.0" fill="#7fd1a8" font-family="system-ui,sans-serif" font-size="22" font-weight="700" text-anchor="end">4X</text>
<rect x="118" y="280.0" width="611.2" height="26" rx="3" fill="#2a3038"/>
<text x="739.2" y="299.0" fill="#e8eaed" font-family="ui-monospace,Consolas,monospace" font-size="15" font-weight="700" text-anchor="start">225 fps</text>
<rect x="118" y="312.0" width="513.5" height="26" rx="3" fill="#7fd1a8"/>
<text x="641.5" y="331.0" fill="#7fd1a8" font-family="ui-monospace,Consolas,monospace" font-size="15" font-weight="700" text-anchor="start">189</text>
<text x="94.0" y="386.0" fill="#e8eaed" font-family="system-ui,sans-serif" font-size="22" font-weight="700" text-anchor="end">5X</text>
<rect x="118" y="356.0" width="611.2" height="26" rx="3" fill="#2a3038"/>
<text x="739.2" y="375.0" fill="#e8eaed" font-family="ui-monospace,Consolas,monospace" font-size="15" font-weight="700" text-anchor="start">225 fps</text>
<rect x="118" y="388.0" width="402.1" height="26" rx="3" fill="#98a2ad"/>
<text x="530.1" y="407.0" fill="#98a2ad" font-family="ui-monospace,Consolas,monospace" font-size="15" font-weight="700" text-anchor="start">148</text>
<text x="94.0" y="462.0" fill="#e8eaed" font-family="system-ui,sans-serif" font-size="22" font-weight="700" text-anchor="end">6X</text>
<rect x="118" y="432.0" width="611.2" height="26" rx="3" fill="#2a3038"/>
<text x="739.2" y="451.0" fill="#e8eaed" font-family="ui-monospace,Consolas,monospace" font-size="15" font-weight="700" text-anchor="start">225 fps</text>
<rect x="118" y="464.0" width="461.8" height="26" rx="3" fill="#98a2ad"/>
<text x="589.8" y="483.0" fill="#98a2ad" font-family="ui-monospace,Consolas,monospace" font-size="15" font-weight="700" text-anchor="start">170</text>
<rect x="28.0" y="514.0" width="924.0" height="80.0" rx="6" fill="none" stroke="#7fd1a8" stroke-width="1.5"/>
<text x="490.0" y="546.0" fill="#e8eaed" font-family="system-ui,sans-serif" font-size="17" font-weight="700" text-anchor="middle">4X has the highest 1% low of the five.</text>
<text x="490.0" y="574.0" fill="#98a2ad" font-family="system-ui,sans-serif" font-size="14" font-weight="400" text-anchor="middle">Past 4X the display ceiling is already saturated, so more generated frames buy nothing and cost smoothness.</text>
</svg>
